<mxfile host="app.diagrams.net" modified="2024-04-02T06:25:27.647Z" agent="Mozilla/5.0 (Windows NT 10.0; Win64; x64) AppleWebKit/537.36 (KHTML, like Gecko) Chrome/125.0.0.0 Safari/537.36" version="24.2.1" etag="qIJc0Sk6hz29w1yw13fF" type="github">
  <diagram name="第 1 页" id="z2x4UcJcFMROci2A8Mf3">
    <mxGraphModel>
      <root>
        <mxCell id="0" />
        <mxCell id="1" parent="0" />
      </root>
    </mxGraphModel>
  </diagram>
</mxfile>
